<svg xmlns="http://www.w3.org/2000/svg" viewBox="0 0 600 600" width="100%" height="100%">
  <defs>
    <linearGradient id="bgGrad" x1="0%" y1="0%" x2="100%" y2="100%">
      <stop offset="0%" stop-color="#ffffff"/>
      <stop offset="100%" stop-color="#f4f6f9"/>
    </linearGradient>
    <linearGradient id="bodyGrad" x1="0%" y1="0%" x2="0%" y2="100%">
      <stop offset="0%" stop-color="#ea580c"/>
      <stop offset="100%" stop-color="#c2410c"/>
    </linearGradient>
    <filter id="dropShadow" x="-10%" y="-10%" width="130%" height="130%">
      <feDropShadow dx="0" dy="16" stdDeviation="20" flood-color="#0f172a" flood-opacity="0.14"/>
    </filter>
    <filter id="softGlow" x="-20%" y="-20%" width="140%" height="140%">
      <feGaussianBlur stdDeviation="8" result="glow"/>
      <feComposite in="SourceGraphic" in2="glow" operator="over"/>
    </filter>
  </defs>

  <!-- Clean Background with Subtle Grid Pattern -->
  <rect width="600" height="600" rx="32" fill="url(#bgGrad)"/>
  <circle cx="300" cy="270" r="220" fill="#ffffff" opacity="0.8"/>
  <circle cx="300" cy="270" r="160" fill="#ea580c" opacity="0.04"/>

  <!-- Category & Brand Header Watermark -->
  <rect x="40" y="32" width="120" height="28" rx="14" fill="#0f172a" opacity="0.05"/>
  <text x="100" y="50" text-anchor="middle" font-family="'Inter', sans-serif" font-size="11" font-weight="800" fill="#475569" letter-spacing="1.5">SOLARKITS</text>

  <!-- Dynamic Product Visual Graphic -->
  <g filter="url(#dropShadow)">
    <rect x="185" y="105" width="230" height="305" rx="16" fill="#f1f5f9" stroke="#cbd5e1" stroke-width="4"/>
     <!-- Transparent Lid Window -->
     <rect x="205" y="125" width="190" height="235" rx="10" fill="#e0f2fe" opacity="0.6" stroke="#38bdf8" stroke-width="2"/>
     <!-- DC SPD & Fuse Holder Inside -->
     <rect x="225" y="155" width="65" height="125" rx="6" fill="#ef4444"/>
     <text x="257" y="220" text-anchor="middle" font-family="'Inter', sans-serif" font-size="11" font-weight="900" fill="#ffffff" transform="rotate(-90 257 220)">DC SPD 1000V</text>
     <rect x="310" y="155" width="65" height="125" rx="6" fill="#0f172a"/>
     <text x="342" y="220" text-anchor="middle" font-family="'Inter', sans-serif" font-size="11" font-weight="900" fill="#ffffff" transform="rotate(-90 342 220)">16A gPV FUSE</text>
     <rect x="235" y="380" width="45" height="20" rx="4" fill="#334155"/>
     <rect x="320" y="380" width="45" height="20" rx="4" fill="#334155"/>
     <text x="300" y="335" text-anchor="middle" font-family="'Inter', sans-serif" font-size="12" font-weight="900" fill="#ea580c">IP65 WEATHERPROOF</text>
  </g>

  <!-- Technical Label Footer Badge -->
  <g transform="translate(60, 505)">
    <rect width="480" height="62" rx="18" fill="#ffffff" stroke="#e2e8f0" stroke-width="1.5" filter="url(#dropShadow)"/>
    <circle cx="36" cy="31" r="10" fill="#ea580c"/>
    <circle cx="36" cy="31" r="4" fill="#ffffff"/>
    <text x="60" y="27" font-family="'Inter', sans-serif" font-size="13" font-weight="900" fill="#0f172a">Solarkits 1-String DCDB</text>
    <text x="60" y="44" font-family="'Inter', sans-serif" font-size="10" font-weight="700" fill="#64748b" letter-spacing="0.5">DC DISTRIBUTION BOX • CERTIFIED SOLAR HARDWARE</text>
    <rect x="400" y="19" width="60" height="24" rx="8" fill="#ea580c" opacity="0.12"/>
    <text x="430" y="35" text-anchor="middle" font-family="'Inter', sans-serif" font-size="10" font-weight="800" fill="#ea580c">GENUINE</text>
  </g>
</svg>