<svg xmlns="http://www.w3.org/2000/svg" viewBox="0 0 600 600" width="100%" height="100%">
  <defs>
    <linearGradient id="bgGrad" x1="0%" y1="0%" x2="100%" y2="100%">
      <stop offset="0%" stop-color="#ffffff"/>
      <stop offset="100%" stop-color="#f4f6f9"/>
    </linearGradient>
    <linearGradient id="bodyGrad" x1="0%" y1="0%" x2="0%" y2="100%">
      <stop offset="0%" stop-color="#1d4ed8"/>
      <stop offset="100%" stop-color="#1e40af"/>
    </linearGradient>
    <filter id="dropShadow" x="-10%" y="-10%" width="130%" height="130%">
      <feDropShadow dx="0" dy="16" stdDeviation="20" flood-color="#0f172a" flood-opacity="0.14"/>
    </filter>
    <filter id="softGlow" x="-20%" y="-20%" width="140%" height="140%">
      <feGaussianBlur stdDeviation="8" result="glow"/>
      <feComposite in="SourceGraphic" in2="glow" operator="over"/>
    </filter>
  </defs>

  <!-- Clean Background with Subtle Grid Pattern -->
  <rect width="600" height="600" rx="32" fill="url(#bgGrad)"/>
  <circle cx="300" cy="270" r="220" fill="#ffffff" opacity="0.8"/>
  <circle cx="300" cy="270" r="160" fill="#1d4ed8" opacity="0.04"/>

  <!-- Category & Brand Header Watermark -->
  <rect x="40" y="32" width="120" height="28" rx="14" fill="#0f172a" opacity="0.05"/>
  <text x="100" y="50" text-anchor="middle" font-family="'Inter', sans-serif" font-size="11" font-weight="800" fill="#475569" letter-spacing="1.5">TATA MOTORS</text>

  <!-- Dynamic Product Visual Graphic -->
  <g filter="url(#dropShadow)">
    <rect x="190" y="80" width="220" height="375" rx="20" fill="#ffffff" stroke="#cbd5e1" stroke-width="4"/>
     <rect x="210" y="110" width="180" height="130" rx="14" fill="#0f172a"/>
     <text x="300" y="165" text-anchor="middle" font-family="'Inter', sans-serif" font-size="28" font-weight="900" fill="#38bdf8">30 kW</text>
     <text x="300" y="195" text-anchor="middle" font-family="'Inter', sans-serif" font-size="11" font-weight="700" fill="#22c55e">● READY FOR CHARGE</text>
     <rect x="220" y="260" width="160" height="60" rx="10" fill="#f1f5f9" stroke="#e2e8f0" stroke-width="2"/>
     <text x="300" y="295" text-anchor="middle" font-family="'Inter', sans-serif" font-size="13" font-weight="900" fill="#0f172a">CCS-2 DUAL GUN</text>
     <rect x="210" y="340" width="180" height="85" rx="10" fill="#0284c7"/>
     <text x="300" y="388" text-anchor="middle" font-family="'Inter', sans-serif" font-size="14" font-weight="900" fill="#ffffff">TATA POWER EZ</text>
  </g>

  <!-- Technical Label Footer Badge -->
  <g transform="translate(60, 505)">
    <rect width="480" height="62" rx="18" fill="#ffffff" stroke="#e2e8f0" stroke-width="1.5" filter="url(#dropShadow)"/>
    <circle cx="36" cy="31" r="10" fill="#1d4ed8"/>
    <circle cx="36" cy="31" r="4" fill="#ffffff"/>
    <text x="60" y="27" font-family="'Inter', sans-serif" font-size="13" font-weight="900" fill="#0f172a">Tata Motors 30kW DC Fast Charger</text>
    <text x="60" y="44" font-family="'Inter', sans-serif" font-size="10" font-weight="700" fill="#64748b" letter-spacing="0.5">DC FAST CHARGING HUB • CERTIFIED SOLAR HARDWARE</text>
    <rect x="400" y="19" width="60" height="24" rx="8" fill="#1d4ed8" opacity="0.12"/>
    <text x="430" y="35" text-anchor="middle" font-family="'Inter', sans-serif" font-size="10" font-weight="800" fill="#1d4ed8">GENUINE</text>
  </g>
</svg>